<svg xmlns="http://www.w3.org/2000/svg" width="100" height="100" viewBox="0 0 100 100">
  <defs>
    <radialGradient id="fireGrad" cx="50%" cy="50%" r="50%">
      <stop offset="0%" style="stop-color:#ff6b00;stop-opacity:0.5"/>
      <stop offset="100%" style="stop-color:#ff2d00;stop-opacity:0"/>
    </radialGradient>
  </defs>
  <g fill="none" stroke="url(#fireGrad)" stroke-width="0.5" opacity="0.3">
    <circle cx="10" cy="10" r="8"/>
    <circle cx="30" cy="20" r="6"/>
    <circle cx="50" cy="10" r="7"/>
    <circle cx="70" cy="25" r="5"/>
    <circle cx="90" cy="15" r="8"/>
    <circle cx="20" cy="40" r="6"/>
    <circle cx="40" cy="50" r="8"/>
    <circle cx="60" cy="45" r="5"/>
    <circle cx="80" cy="55" r="7"/>
    <circle cx="15" cy="70" r="7"/>
    <circle cx="35" cy="80" r="5"/>
    <circle cx="55" cy="75" r="8"/>
    <circle cx="75" cy="85" r="6"/>
    <circle cx="95" cy="70" r="5"/>
    <circle cx="5" cy="90" r="6"/>
    <circle cx="25" cy="95" r="4"/>
    <circle cx="45" cy="90" r="7"/>
    <circle cx="65" cy="95" r="5"/>
    <circle cx="85" cy="90" r="8"/>
  </g>
</svg>
